<svg id="visual" viewBox="0 0 900 600" width="900" height="600" xmlns="http://www.w3.org/2000/svg" xmlns:xlink="http://www.w3.org/1999/xlink" version="1.1"><path d="M0 417L16.7 417.7C33.3 418.3 66.7 419.7 100 416.8C133.3 414 166.7 407 200 407.7C233.3 408.3 266.7 416.7 300 417.8C333.3 419 366.7 413 400 412.2C433.3 411.3 466.7 415.7 500 416.7C533.3 417.7 566.7 415.3 600 413.3C633.3 411.3 666.7 409.7 700 411.3C733.3 413 766.7 418 800 420.2C833.3 422.3 866.7 421.7 883.3 421.3L900 421L900 601L883.3 601C866.7 601 833.3 601 800 601C766.7 601 733.3 601 700 601C666.7 601 633.3 601 600 601C566.7 601 533.3 601 500 601C466.7 601 433.3 601 400 601C366.7 601 333.3 601 300 601C266.7 601 233.3 601 200 601C166.7 601 133.3 601 100 601C66.7 601 33.3 601 16.7 601L0 601Z" fill="#057a8d"></path><path d="M0 432L16.7 435C33.3 438 66.7 444 100 447C133.3 450 166.7 450 200 447.8C233.3 445.7 266.7 441.3 300 439.3C333.3 437.3 366.7 437.7 400 438.7C433.3 439.7 466.7 441.3 500 442C533.3 442.7 566.7 442.3 600 440.5C633.3 438.7 666.7 435.3 700 436.7C733.3 438 766.7 444 800 444.3C833.3 444.7 866.7 439.3 883.3 436.7L900 434L900 601L883.3 601C866.7 601 833.3 601 800 601C766.7 601 733.3 601 700 601C666.7 601 633.3 601 600 601C566.7 601 533.3 601 500 601C466.7 601 433.3 601 400 601C366.7 601 333.3 601 300 601C266.7 601 233.3 601 200 601C166.7 601 133.3 601 100 601C66.7 601 33.3 601 16.7 601L0 601Z" fill="#1c6476"></path><path d="M0 481L16.7 477.8C33.3 474.7 66.7 468.3 100 467.8C133.3 467.3 166.7 472.7 200 475.2C233.3 477.7 266.7 477.3 300 478C333.3 478.7 366.7 480.3 400 478.8C433.3 477.3 466.7 472.7 500 472.2C533.3 471.7 566.7 475.3 600 478.2C633.3 481 666.7 483 700 481.8C733.3 480.7 766.7 476.3 800 474.8C833.3 473.3 866.7 474.7 883.3 475.3L900 476L900 601L883.3 601C866.7 601 833.3 601 800 601C766.7 601 733.3 601 700 601C666.7 601 633.3 601 600 601C566.7 601 533.3 601 500 601C466.7 601 433.3 601 400 601C366.7 601 333.3 601 300 601C266.7 601 233.3 601 200 601C166.7 601 133.3 601 100 601C66.7 601 33.3 601 16.7 601L0 601Z" fill="#234f5f"></path><path d="M0 497L16.7 497.8C33.3 498.7 66.7 500.3 100 502.7C133.3 505 166.7 508 200 507.3C233.3 506.7 266.7 502.3 300 502.2C333.3 502 366.7 506 400 506.2C433.3 506.3 466.7 502.7 500 501.7C533.3 500.7 566.7 502.3 600 503C633.3 503.7 666.7 503.3 700 502.5C733.3 501.7 766.7 500.3 800 499.8C833.3 499.3 866.7 499.7 883.3 499.8L900 500L900 601L883.3 601C866.7 601 833.3 601 800 601C766.7 601 733.3 601 700 601C666.7 601 633.3 601 600 601C566.7 601 533.3 601 500 601C466.7 601 433.3 601 400 601C366.7 601 333.3 601 300 601C266.7 601 233.3 601 200 601C166.7 601 133.3 601 100 601C66.7 601 33.3 601 16.7 601L0 601Z" fill="#233b47"></path><path d="M0 533L16.7 535C33.3 537 66.7 541 100 542C133.3 543 166.7 541 200 538.2C233.3 535.3 266.7 531.7 300 531.7C333.3 531.7 366.7 535.3 400 537.2C433.3 539 466.7 539 500 536.5C533.3 534 566.7 529 600 529.5C633.3 530 666.7 536 700 538C733.3 540 766.7 538 800 535.8C833.3 533.7 866.7 531.3 883.3 530.2L900 529L900 601L883.3 601C866.7 601 833.3 601 800 601C766.7 601 733.3 601 700 601C666.7 601 633.3 601 600 601C566.7 601 533.3 601 500 601C466.7 601 433.3 601 400 601C366.7 601 333.3 601 300 601C266.7 601 233.3 601 200 601C166.7 601 133.3 601 100 601C66.7 601 33.3 601 16.7 601L0 601Z" fill="#1f2930"></path><path d="M0 570L16.7 569.5C33.3 569 66.7 568 100 566.2C133.3 564.3 166.7 561.7 200 560.3C233.3 559 266.7 559 300 558.5C333.3 558 366.7 557 400 558C433.3 559 466.7 562 500 564.8C533.3 567.7 566.7 570.3 600 569.2C633.3 568 666.7 563 700 560.3C733.3 557.7 766.7 557.3 800 556.8C833.3 556.3 866.7 555.7 883.3 555.3L900 555L900 601L883.3 601C866.7 601 833.3 601 800 601C766.7 601 733.3 601 700 601C666.7 601 633.3 601 600 601C566.7 601 533.3 601 500 601C466.7 601 433.3 601 400 601C366.7 601 333.3 601 300 601C266.7 601 233.3 601 200 601C166.7 601 133.3 601 100 601C66.7 601 33.3 601 16.7 601L0 601Z" fill="#171819"></path></svg>